Coordinates
version=1
nRows=25
nColumns=24
inDegrees=yes

Units are S.I. units (second, meters, Newtons, ...)
If the header above contains a line with 'inDegrees', this indicates whether rotational values are in degrees (yes) or radians (no).

endheader
time	pelvis_tilt	pelvis_list	pelvis_rotation	pelvis_tx	pelvis_ty	pelvis_tz	hip_flexion_r	hip_adduction_r	hip_rotation_r	knee_angle_r	ankle_angle_r	subtalar_angle_r	mtp_angle_r	hip_flexion_l	hip_adduction_l	hip_rotation_l	knee_angle_l	ankle_angle_l	subtalar_angle_l	mtp_angle_l	lumbar_extension	lumbar_bending	lumbar_rotation
5.325000	10.033731	1.849458	-179.433787	0.257645	0.792508	-1.213966	35.227247	-19.292871	-25.482042	-47.325465	14.693372	8.275800	0.000000	36.396441	-24.232120	-22.371547	-46.629251	13.787870	13.336419	0.000000	-3.827210	1.810640	1.902213
5.330000	10.075240	1.835365	-179.451761	0.257035	0.795764	-1.213864	34.648844	-19.044606	-25.699698	-46.141903	14.109649	8.309615	0.000000	35.769371	-23.952208	-22.622161	-45.451194	13.207074	13.241884	0.000000	-3.656610	1.812331	1.896866
5.335000	10.158117	1.814822	-179.503404	0.256471	0.798911	-1.213650	34.138201	-18.806984	-25.914553	-44.966555	13.510674	8.337449	0.000000	35.179911	-23.670597	-22.895527	-44.278940	12.594410	13.098490	0.000000	-3.445552	1.841795	1.876408
5.340000	10.051547	1.791905	-179.460978	0.255857	0.802063	-1.213817	33.419248	-18.572766	-26.149444	-43.851665	12.999143	8.323117	0.000000	34.433265	-23.378468	-23.088191	-43.104335	12.021766	13.010248	0.000000	-3.456606	1.787593	1.772903
5.345000	10.051357	1.807760	-179.471541	0.255218	0.805129	-1.213819	32.780587	-18.273973	-26.360136	-42.642315	12.426537	8.346535	0.000000	33.792959	-23.128820	-23.297061	-41.947259	11.469267	12.921524	0.000000	-3.334167	1.814400	1.699414
5.350000	10.126705	1.792187	-179.488257	0.254582	0.808026	-1.213769	32.236304	-17.998321	-26.514964	-41.427666	11.846381	8.361755	0.000000	33.225085	-22.838616	-23.506651	-40.790007	10.963599	12.870389	0.000000	-3.120325	1.805047	1.643620
5.355000	10.095974	1.772143	-179.462106	0.254038	0.810833	-1.213820	31.604148	-17.748515	-26.701663	-40.279816	11.307088	8.348927	0.000000	32.584848	-22.549766	-23.700748	-39.664318	10.421529	12.789106	0.000000	-3.050736	1.766466	1.561016
5.360000	10.195189	1.791683	-179.521296	0.253417	0.813524	-1.213665	31.115879	-17.438624	-26.853465	-39.103788	10.716036	8.351049	0.000000	32.050085	-22.300544	-23.898756	-38.527279	9.879864	12.635733	0.000000	-2.806445	1.833974	1.535258
5.365000	10.181009	1.790379	-179.520126	0.252916	0.816109	-1.213803	30.546266	-17.161558	-27.005494	-38.022919	10.196188	8.280053	0.000000	31.448739	-22.036466	-24.037134	-37.426040	9.322925	12.466829	0.000000	-2.721478	1.805391	1.468920
5.370000	10.196834	1.787869	-179.545571	0.252316	0.818577	-1.213760	30.005734	-16.895161	-27.153675	-36.933335	9.651662	8.269185	0.000000	30.872543	-21.779488	-24.213828	-36.354173	8.781139	12.295970	0.000000	-2.578251	1.809726	1.446647
5.375000	10.179085	1.683972	-179.507358	0.251370	0.821103	-1.213107	29.373541	-16.806609	-27.349811	-35.800428	9.106332	8.364495	0.000000	30.209593	-21.331068	-24.378950	-35.234813	8.311404	12.116504	0.000000	-2.429802	1.794361	1.290496
5.380000	10.186888	1.673408	-179.495837	0.250761	0.823316	-1.213083	28.823298	-16.557759	-27.494289	-34.724410	8.615078	8.394061	0.000000	29.657954	-21.048809	-24.488262	-34.188245	7.817551	11.928305	0.000000	-2.302218	1.759762	1.244787
5.385000	10.151745	1.667600	-179.462774	0.250254	0.825495	-1.213175	28.247814	-16.293525	-27.608429	-33.675387	8.126660	8.314547	0.000000	29.098962	-20.780828	-24.567552	-33.171480	7.307932	11.753048	0.000000	-2.238683	1.726564	1.141508
5.390000	10.231417	1.688894	-179.515390	0.249651	0.827536	-1.213065	27.819787	-15.996393	-27.671986	-32.643072	7.620169	8.247266	0.000000	28.625248	-20.547650	-24.678829	-32.166065	6.809066	11.504573	0.000000	-2.025126	1.771223	1.120296
5.395000	10.187029	1.680460	-179.477448	0.249137	0.829448	-1.213139	27.261532	-15.753344	-27.783308	-31.654903	7.198967	8.146055	0.000000	28.083118	-20.292044	-24.749905	-31.203583	6.351902	11.348582	0.000000	-1.958929	1.729555	1.040473
5.400000	10.191070	1.682631	-179.489733	0.248619	0.831240	-1.213124	26.774211	-15.495297	-27.870855	-30.675324	6.717279	8.082258	0.000000	27.571285	-20.047218	-24.831734	-30.223655	5.929426	11.175184	0.000000	-1.838658	1.729533	0.994931
5.405000	10.266202	1.696516	-179.521438	0.248071	0.832885	-1.213031	26.369112	-15.216124	-27.901745	-29.688734	6.227826	7.939669	0.000000	27.138401	-19.810786	-24.896200	-29.272933	5.494448	10.938274	0.000000	-1.623261	1.762354	0.958360
5.410000	10.332983	1.714540	-179.534151	0.247568	0.834283	-1.213004	25.995355	-14.982755	-28.040905	-28.810546	5.806024	7.904156	0.000000	26.751719	-19.626307	-25.026832	-28.419393	5.088892	10.859166	0.000000	-1.436189	1.752592	0.984546
5.415000	10.313945	1.755396	-179.553759	0.247058	0.835841	-1.213026	25.521363	-14.674227	-28.060571	-27.882400	5.384683	7.672203	0.000000	26.262248	-19.423772	-25.011710	-27.502900	4.670683	10.536755	0.000000	-1.328970	1.805854	0.949381
5.420000	10.281455	1.751099	-179.537959	0.246605	0.837221	-1.213018	25.073600	-14.474610	-28.170330	-27.065008	5.016557	7.563293	0.000000	25.798680	-19.182915	-25.006121	-26.651127	4.265388	10.244215	0.000000	-1.253841	1.790868	0.890420
5.425000	10.336875	1.790977	-179.553018	0.246184	0.838361	-1.213002	24.716390	-14.213429	-28.229393	-26.219956	4.632256	7.469619	0.000000	25.438719	-19.001053	-25.016007	-25.822275	3.863005	9.912481	0.000000	-1.093166	1.806385	0.913641
5.430000	10.426918	1.799919	-179.569190	0.245719	0.839418	-1.212907	24.409589	-14.014531	-28.348398	-25.420258	4.226584	7.476140	0.000000	25.125089	-18.819058	-25.140869	-25.056463	3.538386	9.820606	0.000000	-0.862645	1.824569	0.877091
5.435000	10.403910	1.793570	-179.524733	0.245387	0.840478	-1.212978	23.991878	-13.805614	-28.368527	-24.627943	3.891724	7.239514	0.000000	24.731748	-18.582128	-25.044299	-24.283489	3.185155	9.428205	0.000000	-0.797867	1.778440	0.778313
5.440000	10.430942	1.841846	-179.547390	0.244980	0.841371	-1.212977	23.654399	-13.562594	-28.435348	-23.890550	3.578509	7.204176	0.000000	24.386134	-18.446176	-25.078249	-23.560436	2.882362	9.215267	0.000000	-0.655402	1.831279	0.779758
5.445000	10.488419	1.894418	-179.581805	0.244652	0.842142	-1.212952	23.383133	-13.331716	-28.529097	-23.213674	3.287108	7.169011	0.000000	24.092394	-18.323390	-25.102679	-22.876384	2.581641	8.975798	0.000000	-0.495444	1.884528	0.793461
